<?xml version="1.0" standalone="no"?><!DOCTYPE svg PUBLIC "-//W3C//DTD SVG 1.1//EN" "http://www.w3.org/Graphics/SVG/1.1/DTD/svg11.dtd"><svg t="1658716178842" class="icon" viewBox="0 0 1024 1024" version="1.1" xmlns="http://www.w3.org/2000/svg" p-id="21247" width="64" height="64" xmlns:xlink="http://www.w3.org/1999/xlink"><defs><style type="text/css"></style></defs><path d="M810.666667 128H213.333333c-47.36 0-85.333333 37.973333-85.333333 85.333333v170.666667h85.333333V213.333333h597.333334v597.333334H213.333333v-170.666667H128v170.666667a85.333333 85.333333 0 0 0 85.333333 85.333333h597.333334a85.333333 85.333333 0 0 0 85.333333-85.333333V213.333333a85.333333 85.333333 0 0 0-85.333333-85.333333m-380.586667 536.746667L490.666667 725.333333l213.333333-213.333333-213.333333-213.333333-60.586667 60.16L540.586667 469.333333H128v85.333334h412.586667l-110.506667 110.08z" fill="#333333" p-id="21248"></path></svg>