<?xml version="1.0" encoding="UTF-8" standalone="no"?>
<!-- Created with Inkscape (http://www.inkscape.org/) -->

<svg
   width="12.7mm"
   height="9.3979998mm"
   viewBox="0 0 12.7 9.3979996"
   version="1.1"
   id="svg281"
   inkscape:version="1.1.1 (3bf5ae0d25, 2021-09-20)"
   sodipodi:docname="video.svg"
   xmlns:inkscape="http://www.inkscape.org/namespaces/inkscape"
   xmlns:sodipodi="http://sodipodi.sourceforge.net/DTD/sodipodi-0.dtd"
   xmlns="http://www.w3.org/2000/svg"
   xmlns:svg="http://www.w3.org/2000/svg">
  <sodipodi:namedview
     id="namedview283"
     pagecolor="#ffffff"
     bordercolor="#666666"
     borderopacity="1.0"
     inkscape:pageshadow="2"
     inkscape:pageopacity="0.0"
     inkscape:pagecheckerboard="0"
     inkscape:document-units="mm"
     showgrid="false"
     inkscape:zoom="2.9362514"
     inkscape:cx="114.6019"
     inkscape:cy="52.958681"
     inkscape:window-width="1920"
     inkscape:window-height="1009"
     inkscape:window-x="-8"
     inkscape:window-y="-8"
     inkscape:window-maximized="1"
     inkscape:current-layer="layer1" />
  <defs
     id="defs278" />
  <g
     inkscape:label="Layer 1"
     inkscape:groupmode="layer"
     id="layer1"
     transform="translate(-138.95202,-112.3184)">
    <path
       d="m 138.95202,113.0804 a 0.76199978,0.76199978 0 0 1 0.762,-0.762 h 11.17599 a 0.76199978,0.76199978 0 0 1 0.76201,0.762 v 7.874 a 0.76199978,0.76199978 0 0 1 -0.76201,0.762 h -11.17599 a 0.76199978,0.76199978 0 0 1 -0.762,-0.762 z"
       fill="#29b4ff"
       p-id="5209"
       id="path8"
       style="stroke-width:0.0124024" />
    <path
       d="m 147.52452,116.68746 c 0.254,0.14668 0.254,0.51321 0,0.65989 l -3.048,1.75971 c -0.254,0.14668 -0.5715,-0.0366 -0.5715,-0.32995 v -3.51942 c 0,-0.29337 0.3175,-0.47663 0.5715,-0.33007 z"
       fill="#7bd1ff"
       p-id="5210"
       id="path10"
       style="stroke-width:0.0124024" />
    <path
       d="m 140.22202,113.2074 a 0.38099989,0.38099989 0 0 0 -0.381,0.381 v 0.508 a 0.38099989,0.38099989 0 0 0 0.381,0.381 h 0.508 a 0.38099989,0.38099989 0 0 0 0.381,-0.381 v -0.508 a 0.38099989,0.38099989 0 0 0 -0.381,-0.381 z m 0,2.032 a 0.38099989,0.38099989 0 0 0 -0.381,0.381 v 0.508 a 0.38099989,0.38099989 0 0 0 0.381,0.381 h 0.508 a 0.38099989,0.38099989 0 0 0 0.381,-0.381 v -0.508 a 0.38099989,0.38099989 0 0 0 -0.381,-0.381 z m -0.381,2.54 a 0.38099989,0.38099989 0 0 1 0.381,-0.381 h 0.508 a 0.38099989,0.38099989 0 0 1 0.381,0.381 v 0.508 a 0.38099989,0.38099989 0 0 1 -0.381,0.381 h -0.508 a 0.38099989,0.38099989 0 0 1 -0.381,-0.381 z m 0.381,1.778 a 0.38099989,0.38099989 0 0 0 -0.381,0.381 v 0.508 a 0.38099989,0.38099989 0 0 0 0.381,0.381 h 0.508 a 0.38099989,0.38099989 0 0 0 0.381,-0.381 v -0.508 a 0.38099989,0.38099989 0 0 0 -0.381,-0.381 z m 9.652,-6.35 a 0.38099989,0.38099989 0 0 0 -0.381,0.381 v 0.508 a 0.38099989,0.38099989 0 0 0 0.381,0.381 h 0.508 a 0.38099989,0.38099989 0 0 0 0.381,-0.381 v -0.508 a 0.38099989,0.38099989 0 0 0 -0.381,-0.381 z m 0,2.032 a 0.38099989,0.38099989 0 0 0 -0.381,0.381 v 0.508 a 0.38099989,0.38099989 0 0 0 0.381,0.381 h 0.508 a 0.38099989,0.38099989 0 0 0 0.381,-0.381 v -0.508 a 0.38099989,0.38099989 0 0 0 -0.381,-0.381 z m -0.381,2.54 a 0.38099989,0.38099989 0 0 1 0.381,-0.381 h 0.508 a 0.38099989,0.38099989 0 0 1 0.381,0.381 v 0.508 a 0.38099989,0.38099989 0 0 1 -0.381,0.381 h -0.508 a 0.38099989,0.38099989 0 0 1 -0.381,-0.381 z m 0.381,1.778 a 0.38099989,0.38099989 0 0 0 -0.381,0.381 v 0.508 a 0.38099989,0.38099989 0 0 0 0.381,0.381 h 0.508 a 0.38099989,0.38099989 0 0 0 0.381,-0.381 v -0.508 a 0.38099989,0.38099989 0 0 0 -0.381,-0.381 z"
       fill="#0099ee"
       p-id="5211"
       id="path12"
       style="stroke-width:0.0124024" />
  </g>
</svg>
