<?xml version="1.0" encoding="UTF-8" standalone="no"?>
<!-- Created with Inkscape (http://www.inkscape.org/) -->

<svg
   width="16.93334mm"
   height="12.53067mm"
   viewBox="0 0 16.93334 12.53067"
   version="1.1"
   id="svg281"
   inkscape:version="1.1.1 (3bf5ae0d25, 2021-09-20)"
   sodipodi:docname="video.svg"
   xmlns:inkscape="http://www.inkscape.org/namespaces/inkscape"
   xmlns:sodipodi="http://sodipodi.sourceforge.net/DTD/sodipodi-0.dtd"
   xmlns="http://www.w3.org/2000/svg"
   xmlns:svg="http://www.w3.org/2000/svg">
  <sodipodi:namedview
     id="namedview283"
     pagecolor="#ffffff"
     bordercolor="#666666"
     borderopacity="1.0"
     inkscape:pageshadow="2"
     inkscape:pageopacity="0.0"
     inkscape:pagecheckerboard="0"
     inkscape:document-units="mm"
     showgrid="false"
     inkscape:zoom="2.9362514"
     inkscape:cx="114.6019"
     inkscape:cy="52.958681"
     inkscape:window-width="1920"
     inkscape:window-height="1009"
     inkscape:window-x="-8"
     inkscape:window-y="-8"
     inkscape:window-maximized="1"
     inkscape:current-layer="layer1" />
  <defs
     id="defs278" />
  <g
     inkscape:label="Layer 1"
     inkscape:groupmode="layer"
     id="layer1"
     transform="translate(-138.95202,-112.3184)">
    <path
       d="m 138.95202,113.3344 a 1.0160001,1.0160001 0 0 1 1.016,-1.016 h 14.90133 a 1.0160001,1.0160001 0 0 1 1.01601,1.016 v 10.49867 a 1.0160001,1.0160001 0 0 1 -1.01601,1.016 h -14.90133 a 1.0160001,1.0160001 0 0 1 -1.016,-1.016 z"
       fill="#29b4ff"
       p-id="5209"
       id="path8"
       style="stroke-width:0.0165365" />
    <path
       d="m 150.38202,118.14381 c 0.33867,0.19558 0.33867,0.68428 0,0.87986 l -4.064,2.34628 c -0.33867,0.19558 -0.762,-0.0488 -0.762,-0.43993 v -4.69257 c 0,-0.39116 0.42333,-0.6355 0.762,-0.44009 z"
       fill="#7bd1ff"
       p-id="5210"
       id="path10"
       style="stroke-width:0.0165365" />
    <path
       d="m 140.64535,113.50374 a 0.50800005,0.50800005 0 0 0 -0.508,0.508 v 0.67733 a 0.50800005,0.50800005 0 0 0 0.508,0.508 h 0.67734 a 0.50800005,0.50800005 0 0 0 0.508,-0.508 v -0.67733 a 0.50800005,0.50800005 0 0 0 -0.508,-0.508 z m 0,2.70933 a 0.50800005,0.50800005 0 0 0 -0.508,0.508 v 0.67733 a 0.50800005,0.50800005 0 0 0 0.508,0.508 h 0.67734 a 0.50800005,0.50800005 0 0 0 0.508,-0.508 v -0.67733 a 0.50800005,0.50800005 0 0 0 -0.508,-0.508 z m -0.508,3.38667 a 0.50800005,0.50800005 0 0 1 0.508,-0.508 h 0.67734 a 0.50800005,0.50800005 0 0 1 0.508,0.508 v 0.67733 a 0.50800005,0.50800005 0 0 1 -0.508,0.508 h -0.67734 a 0.50800005,0.50800005 0 0 1 -0.508,-0.508 z m 0.508,2.37066 a 0.50800005,0.50800005 0 0 0 -0.508,0.508 v 0.67734 a 0.50800005,0.50800005 0 0 0 0.508,0.508 h 0.67734 a 0.50800005,0.50800005 0 0 0 0.508,-0.508 v -0.67734 a 0.50800005,0.50800005 0 0 0 -0.508,-0.508 z m 12.86934,-8.46666 a 0.50800005,0.50800005 0 0 0 -0.508,0.508 v 0.67733 a 0.50800005,0.50800005 0 0 0 0.508,0.508 h 0.67733 a 0.50800005,0.50800005 0 0 0 0.508,-0.508 v -0.67733 a 0.50800005,0.50800005 0 0 0 -0.508,-0.508 z m 0,2.70933 a 0.50800005,0.50800005 0 0 0 -0.508,0.508 v 0.67733 a 0.50800005,0.50800005 0 0 0 0.508,0.508 h 0.67733 a 0.50800005,0.50800005 0 0 0 0.508,-0.508 v -0.67733 a 0.50800005,0.50800005 0 0 0 -0.508,-0.508 z m -0.508,3.38667 a 0.50800005,0.50800005 0 0 1 0.508,-0.508 h 0.67733 a 0.50800005,0.50800005 0 0 1 0.508,0.508 v 0.67733 a 0.50800005,0.50800005 0 0 1 -0.508,0.508 h -0.67733 a 0.50800005,0.50800005 0 0 1 -0.508,-0.508 z m 0.508,2.37066 a 0.50800005,0.50800005 0 0 0 -0.508,0.508 v 0.67734 a 0.50800005,0.50800005 0 0 0 0.508,0.508 h 0.67733 a 0.50800005,0.50800005 0 0 0 0.508,-0.508 v -0.67734 a 0.50800005,0.50800005 0 0 0 -0.508,-0.508 z"
       fill="#0099ee"
       p-id="5211"
       id="path12"
       style="stroke-width:0.0165365" />
  </g>
</svg>
